<?xml version="1.0" encoding="UTF-8"?>
<svg xmlns="http://www.w3.org/2000/svg" viewBox="0 0 1132.83 1132.83">
  <defs>
    <style>
      .cls-1 {
        fill: #f6b53f;
      }
    </style>
  </defs>
  <g id="ACTIVE_LEGENDS" data-name="ACTIVE LEGENDS">
    <path class="cls-1" d="M859.01,266.5H273.82v643.41h84.76v-294.13h193.03l89.87,294.13h217.53v-96h-158.3l-62.3-198.9h220.6v-95.23h-248.94l-49.27-156.26h298.21v-97.02ZM357.31,518.5v-154.72h115.66l48.25,154.72h-163.91Z"/>
  </g>
  <g id="Middle">
    <polygon class="cls-1" points="485.99 254.25 551.86 188.38 522.37 158.89 486.75 194.51 453.05 160.8 423.18 190.68 485.99 254.25"/>
  </g>
  <g id="Boarder">
    <path class="cls-1" d="M566.42,1132.83c-76.45,0-150.63-14.98-220.49-44.53-67.45-28.53-128.02-69.37-180.03-121.37-52-52.01-92.84-112.58-121.37-180.03C14.98,717.04,0,642.86,0,566.42s14.98-150.63,44.53-220.49c28.53-67.45,69.36-128.02,121.37-180.03s112.58-92.84,180.03-121.37C415.79,14.98,489.97,0,566.42,0s150.63,14.98,220.49,44.53c67.45,28.53,128.02,69.37,180.03,121.37,52,52,92.84,112.58,121.37,180.03,29.55,69.86,44.53,144.04,44.53,220.49s-14.98,150.63-44.53,220.49c-28.53,67.45-69.37,128.02-121.37,180.03-52.01,52-112.58,92.84-180.03,121.37-69.86,29.55-144.04,44.53-220.49,44.53ZM566.42,85c-265.45,0-481.42,215.96-481.42,481.42s215.96,481.41,481.42,481.41,481.41-215.96,481.41-481.41S831.87,85,566.42,85Z"/>
  </g>
</svg>