<?xml version="1.0" encoding="iso-8859-1"?>
<!-- Generator: Adobe Illustrator 29.0.0, SVG Export Plug-In . SVG Version: 9.03 Build 54978)  -->
<svg version="1.1" id="Layer_1" xmlns="http://www.w3.org/2000/svg" xmlns:xlink="http://www.w3.org/1999/xlink" x="0px" y="0px"
	 viewBox="0 0 1920 1080" style="enable-background:new 0 0 1920 1080;" xml:space="preserve">
<g>
	<g>
		<path style="fill:#232354;" d="M1465.447,82.619"/>
		<path style="fill:#232354;" d="M1265.228,82.615c-75.526,0-136.75,61.225-136.75,136.75v649.501
			c71.921-71.921,112.324-169.458,112.324-271.17V419.587h112.324v224.631c71.921-71.904,112.324-169.459,112.324-271.154V194.939
			h112.324v224.648l32.893-49.356c33.06-49.59,56.715-110.681,69.205-177.019c38.173-3.621,75.391-12.942,110.447-27.461
			c46.086-19.095,88.451-47.176,124.411-83.137H1265.228z M1353.126,307.263h-112.324v-84.578c0-15.323,12.423-27.746,27.746-27.746
			h84.578V307.263z"/>
		<path style="fill:#232354;" d="M654.772,82.615H5.27c35.96,35.961,78.325,64.042,124.412,83.137
			c35.055,14.518,72.273,23.84,110.463,27.461c12.49,66.338,36.128,127.429,69.188,177.019l32.893,49.356V194.939H454.55v178.126
			c0,50.848,10.092,100.656,29.187,146.742c19.095,46.086,47.176,88.468,83.137,124.412V419.587h112.324v178.109
			c0,101.712,40.403,199.25,112.324,271.17V219.365C791.522,143.84,730.297,82.615,654.772,82.615z M679.198,307.263H566.874
			V194.939h84.578c15.323,0,27.746,12.423,27.746,27.746V307.263z"/>
		<path style="fill:#232354;" d="M1128.478,97.334v34.334c0,52.908-18.927,104.071-53.36,144.241l-0.002,0.003
			c-38.048,44.387-58.962,100.921-58.962,159.384V817.08c0,67.629-20.185,132.475-56.145,180.305
			c-35.96-47.83-56.162-112.676-56.162-180.305V435.297c0-58.463-20.914-114.996-58.962-159.384l0,0
			c-34.434-40.172-53.362-91.337-53.362-144.247V97.334c0-8.131,6.589-14.719,14.703-14.719c26.958,0,51.367,10.931,69.021,28.584
			c14.271,14.271,24.146,32.937,27.417,53.792c4.409,28.108,28.885,48.675,57.337,48.675h0c28.453,0,52.929-20.567,57.338-48.676
			c3.271-20.854,13.143-39.52,27.4-53.79c17.67-17.653,42.08-28.584,69.037-28.584c4.057,0,7.729,1.643,10.394,4.309
			C1126.835,89.589,1128.478,93.26,1128.478,97.334z"/>
	</g>
</g>
</svg>
