<?xml version="1.0" encoding="UTF-8"?>
<svg xmlns="http://www.w3.org/2000/svg" viewBox="0 0 1132.83 1132.83">
  <defs>
    <style>
      .cls-1 {
        fill: #232354;
      }
    </style>
  </defs>
  <g id="Boarder">
    <path class="cls-1" d="M566.42,1132.83c-76.45,0-150.63-14.98-220.49-44.53-67.45-28.53-128.02-69.37-180.03-121.37-52-52.01-92.84-112.58-121.37-180.03C14.98,717.04,0,642.86,0,566.42s14.98-150.63,44.53-220.49c28.53-67.45,69.36-128.02,121.37-180.03s112.58-92.84,180.03-121.37C415.79,14.98,489.97,0,566.42,0s150.63,14.98,220.49,44.53c67.45,28.53,128.02,69.37,180.03,121.37,52,52,92.84,112.58,121.37,180.03,29.55,69.86,44.53,144.04,44.53,220.49s-14.98,150.63-44.53,220.49c-28.53,67.45-69.37,128.02-121.37,180.03-52.01,52-112.58,92.84-180.03,121.37-69.86,29.55-144.04,44.53-220.49,44.53ZM566.42,85c-265.45,0-481.42,215.96-481.42,481.42s215.96,481.41,481.42,481.41,481.41-215.96,481.41-481.41S831.87,85,566.42,85Z"/>
  </g>
  <g id="MMM">
    <g>
      <path class="cls-1" d="M708.46,437.55c-35.15,0-63.64,28.49-63.64,63.64v302.27c33.47-33.47,52.27-78.86,52.27-126.2v-82.89h52.27v104.54c33.47-33.46,52.27-78.86,52.27-126.19v-82.9h52.27v104.55l15.31-22.97c15.39-23.08,26.39-51.51,32.21-82.38,17.77-1.69,35.09-6.02,51.4-12.78,21.45-8.89,41.16-21.96,57.9-38.69h-302.27ZM749.37,542.1h-52.27v-39.36c0-7.13,5.78-12.91,12.91-12.91h39.36v52.27Z"/>
      <path class="cls-1" d="M424.37,437.55H122.1c16.74,16.74,36.45,29.8,57.9,38.69,16.31,6.76,33.63,11.09,51.41,12.78,5.81,30.87,16.81,59.3,32.2,82.38l15.31,22.97v-104.55h52.27v82.9c0,23.66,4.7,46.84,13.58,68.29,8.89,21.45,21.96,41.17,38.69,57.9v-104.54h52.27v82.89c0,47.34,18.8,92.73,52.27,126.2v-302.27c0-35.15-28.49-63.64-63.64-63.64ZM435.73,542.1h-52.27v-52.27h39.36c7.13,0,12.91,5.78,12.91,12.91v39.36Z"/>
      <path class="cls-1" d="M644.82,444.4v15.98c0,24.62-8.81,48.43-24.83,67.13h0c-17.71,20.66-27.44,46.97-27.44,74.18v177.68c0,31.47-9.39,61.65-26.13,83.91-16.74-22.26-26.14-52.44-26.14-83.91v-177.68c0-27.21-9.73-53.52-27.44-74.17h0c-16.03-18.7-24.83-42.51-24.83-67.13v-15.98c0-3.78,3.07-6.85,6.84-6.85,12.55,0,23.91,5.09,32.12,13.3,6.64,6.64,11.24,15.33,12.76,25.03,2.05,13.08,13.44,22.65,26.68,22.65h0c13.24,0,24.63-9.57,26.68-22.65,1.52-9.71,6.12-18.39,12.75-25.03,8.22-8.22,19.58-13.3,32.13-13.3,1.89,0,3.6.76,4.84,2.01s2.01,2.95,2.01,4.85Z"/>
    </g>
  </g>
</svg>